<?xml version="1.0" standalone="no"?>
<!DOCTYPE svg PUBLIC "-//W3C//DTD SVG 20010904//EN"
 "http://www.w3.org/TR/2001/REC-SVG-20010904/DTD/svg10.dtd">
<svg version="1.0" xmlns="http://www.w3.org/2000/svg"
 width="300.000000pt" height="300.000000pt" viewBox="0 0 300.000000 300.000000"
 preserveAspectRatio="xMidYMid meet">
<metadata>
Created by potrace 1.11, written by Peter Selinger 2001-2013
</metadata>
<g transform="translate(0.000000,300.000000) scale(0.100000,-0.100000)"
fill="#000000" stroke="none">
<path d="M486 2641 c-13 -16 -286 -483 -320 -548 -20 -40 -31 -16 163 -351 78
-134 141 -245 141 -247 0 -1 -44 -78 -98 -171 -54 -93 -110 -189 -124 -214
-14 -25 -44 -78 -67 -117 -49 -83 -49 -81 16 -191 25 -42 97 -167 160 -277 63
-110 118 -204 123 -209 10 -10 667 -12 696 -2 18 6 51 61 359 591 66 116 167
287 222 380 l101 170 318 0 c271 -1 320 2 334 15 23 20 350 575 350 594 0 19
-327 567 -349 584 -13 10 -214 12 -1013 10 -892 -1 -1000 -3 -1012 -17z m537
-198 c-47 -82 -95 -164 -105 -183 -77 -136 -71 -132 -108 -66 -12 21 -66 117
-121 212 -54 95 -99 176 -99 179 0 3 117 5 259 5 l260 0 -86 -147z m737 142
c0 -9 -249 -435 -255 -435 -2 0 -14 19 -27 43 -14 23 -70 120 -126 215 -56 96
-102 176 -102 178 0 2 115 4 255 4 140 0 255 -2 255 -5z m640 -32 c-12 -21
-70 -120 -128 -221 l-105 -183 -29 48 c-16 26 -33 55 -37 63 -5 8 -50 83 -100
167 -50 84 -91 155 -91 158 0 3 115 5 256 5 l256 0 -22 -37z m-1846 -65 c21
-35 41 -70 46 -78 5 -8 47 -81 94 -162 l85 -148 -47 -1 c-135 -1 -466 2 -469
5 -2 2 249 445 253 446 1 0 18 -28 38 -62z m1284 -386 c-138 -1 -253 -1 -255
1 -2 3 21 47 50 98 30 52 66 114 81 139 14 25 47 82 72 127 l47 82 128 -222
129 -222 -252 -3z m783 220 c69 -119 125 -218 124 -220 -3 -4 -507 -4 -511 1
-2 2 53 103 123 225 70 122 130 219 133 216 3 -3 62 -103 131 -222z m-1423
194 c6 -13 61 -111 122 -216 62 -105 110 -194 107 -196 -2 -2 -117 -3 -255 -2
l-251 3 125 218 c69 119 129 217 133 217 4 0 13 -11 19 -24z m-445 -495 l28
-1 -19 -27 c-10 -16 -70 -117 -132 -226 -62 -108 -114 -196 -115 -195 -6 7
-255 440 -255 443 0 9 217 12 493 6z m1989 0 c6 -1 -235 -427 -251 -443 -5 -6
-242 390 -259 433 -2 4 12 9 30 11 26 2 450 1 480 -1z m-1322 -14 c0 -7 -47
-92 -180 -320 -34 -60 -66 -105 -70 -100 -7 7 -210 357 -239 412 -8 15 14 16
240 16 137 0 249 -4 249 -8z m667 6 c-96 -171 -250 -433 -255 -433 -4 0 -12
10 -18 23 -6 12 -61 109 -122 214 -62 106 -112 195 -112 198 0 3 115 5 256 5
140 0 253 -3 251 -7z m-1182 -148 c32 -55 69 -120 83 -145 14 -25 45 -78 68
-117 l43 -73 -254 0 c-140 0 -255 3 -255 6 0 5 204 360 237 412 8 13 16 22 17
20 2 -1 29 -48 61 -103z m1390 -117 l124 -213 -251 -3 c-138 -1 -253 0 -256 2
-2 3 53 102 123 221 70 119 130 214 132 211 2 -2 60 -100 128 -218z m-669 5
c66 -113 121 -210 122 -215 2 -4 -110 -8 -248 -8 -139 0 -250 4 -248 9 9 24
244 421 249 421 4 0 60 -93 125 -207z m124 -317 c0 -5 -13 -31 -30 -58 -16
-26 -30 -51 -30 -53 0 -3 -17 -34 -39 -68 -21 -34 -62 -104 -90 -154 -29 -51
-56 -95 -60 -98 -7 -4 -239 382 -256 425 -4 13 28 15 250 15 144 0 255 -4 255
-9z m-660 0 c0 -7 -240 -420 -250 -429 -4 -5 -14 4 -22 20 -8 15 -65 115 -126
221 l-111 192 254 0 c140 0 255 -2 255 -4z m-466 -235 c58 -101 106 -186 106
-188 0 -3 9 -18 21 -34 l20 -29 -265 0 -264 0 65 113 c36 61 73 126 82 142 67
122 115 195 121 188 4 -4 56 -91 114 -192z m665 -15 c67 -115 121 -214 121
-220 0 -8 -71 -11 -250 -11 -137 0 -250 1 -250 3 0 1 43 78 97 170 53 92 109
191 126 220 16 29 31 52 32 50 2 -2 58 -97 124 -212z m-529 -319 c0 -9 -253
-448 -256 -444 -8 8 -254 440 -254 445 0 4 115 7 255 7 140 0 255 -3 255 -8z
m660 3 c0 -3 -27 -52 -60 -108 -33 -57 -60 -108 -60 -113 0 -5 -3 -9 -8 -9 -4
0 -13 -12 -20 -27 -7 -16 -34 -66 -61 -111 l-48 -84 -124 214 c-68 117 -125
220 -127 228 -2 13 30 15 253 15 140 0 255 -2 255 -5z m-359 -427 c16 -29 29
-54 29 -56 0 -2 -115 -4 -255 -4 -195 0 -255 2 -253 12 2 6 59 109 127 227
l125 216 99 -172 c54 -94 112 -194 128 -223z"/>
</g>
</svg>
